<svg width="128" height="80" viewBox="0 0 128 80" fill="none" xmlns="http://www.w3.org/2000/svg">
<path d="M48 23.3696L52.6859 26.174V32.7175H48V23.3696Z" fill="white"/>
<path fill-rule="evenodd" clip-rule="evenodd" d="M77.9895 4.67393L80.801 5.00592e-07L48.0001 0L48.0001 4.67393H77.9895ZM48 4.67393L48 19.1631L52.6859 21.9674L52.6859 4.67393L48 4.67393Z" fill="#FF533D"/>
<path d="M55.0288 18.6957L59.7146 21.5V32.7175H55.0288V18.6957Z" fill="white"/>
<path d="M62.0576 14.0218L66.7434 16.8261V32.7175H62.0576V14.0218Z" fill="white"/>
<path d="M69.0863 11.6848L73.7722 14.4892V32.7175H69.0863V11.6848Z" fill="white"/>
<path d="M76.1151 9.34785L80.8009 12.1522V32.7175H76.1151V9.34785Z" fill="white"/>
<path d="M9.94208 63.0783C7.93876 63.0783 6.29376 62.6058 5.00708 61.6608C3.72039 60.6995 3.02819 59.3309 2.93046 57.555H8.03648C8.08535 58.1578 8.2645 58.5978 8.57396 58.8747C8.88342 59.1517 9.28245 59.2902 9.77107 59.2902C10.2108 59.2902 10.5691 59.1843 10.846 58.9725C11.1392 58.7444 11.2858 58.4348 11.2858 58.0438C11.2858 57.5387 11.0496 57.1477 10.5773 56.8707C10.105 56.5937 9.33946 56.2842 8.28079 55.942C7.15698 55.5673 6.2449 55.2088 5.54455 54.8667C4.86049 54.5082 4.25787 53.995 3.73668 53.327C3.23178 52.6427 2.97933 51.7548 2.97933 50.6631C2.97933 49.5552 3.25621 48.6102 3.80997 47.8282C4.36373 47.0298 5.12923 46.427 6.10646 46.0197C7.08369 45.6124 8.19121 45.4087 9.42904 45.4087C11.4324 45.4087 13.0285 45.8812 14.2175 46.8262C15.4227 47.7549 16.066 49.0664 16.1475 50.7609H10.9437C10.9275 50.2395 10.7646 49.8485 10.4551 49.5878C10.162 49.3271 9.77921 49.1968 9.30688 49.1968C8.94856 49.1968 8.6554 49.3027 8.42738 49.5145C8.19936 49.7263 8.08535 50.0277 8.08535 50.4187C8.08535 50.7446 8.2075 51.0297 8.45181 51.2741C8.7124 51.5022 9.03 51.7059 9.4046 51.8851C9.77921 52.048 10.333 52.2598 11.0659 52.5205C12.1571 52.8953 13.0529 53.27 13.7533 53.6447C14.4699 54.0032 15.0807 54.5164 15.5856 55.1844C16.1068 55.8361 16.3674 56.6671 16.3674 57.6772C16.3674 58.7037 16.1068 59.6242 15.5856 60.4388C15.0807 61.2535 14.3396 61.8971 13.3624 62.3696C12.4014 62.842 11.2613 63.0783 9.94208 63.0783Z" fill="white"/>
<path d="M31.5661 45.6775V49.4901H26.9732V62.9072H22.1847V49.4901H17.6406V45.6775H31.5661Z" fill="white"/>
<path d="M44.2338 60.0967H38.1262L37.1978 62.9072H32.1651L38.4438 45.6775H43.9651L50.2194 62.9072H45.1622L44.2338 60.0967ZM43.0367 56.4308L41.18 50.8587L39.3477 56.4308H43.0367Z" fill="white"/>
<path d="M64.7528 45.6775V49.4901H60.1598V62.9072H55.3714V49.4901H50.8273V45.6775H64.7528Z" fill="white"/>
<path d="M71.3128 45.6775V62.9072H66.5244V45.6775H71.3128Z" fill="white"/>
<path d="M80.5383 63.0783C78.5349 63.0783 76.8899 62.6058 75.6033 61.6608C74.3166 60.6995 73.6244 59.3309 73.5266 57.555H78.6327C78.6815 58.1578 78.8607 58.5978 79.1701 58.8747C79.4796 59.1517 79.8786 59.2902 80.3672 59.2902C80.807 59.2902 81.1653 59.1843 81.4422 58.9725C81.7354 58.7444 81.882 58.4348 81.882 58.0438C81.882 57.5387 81.6458 57.1477 81.1735 56.8707C80.7011 56.5937 79.9356 56.2842 78.877 55.942C77.7532 55.5673 76.8411 55.2088 76.1407 54.8667C75.4567 54.5082 74.854 53.995 74.3329 53.327C73.828 52.6427 73.5755 51.7548 73.5755 50.6631C73.5755 49.5552 73.8524 48.6102 74.4062 47.8282C74.9599 47.0298 75.7254 46.427 76.7026 46.0197C77.6799 45.6124 78.7874 45.4087 80.0252 45.4087C82.0285 45.4087 83.6247 45.8812 84.8136 46.8262C86.0189 47.7549 86.6622 49.0664 86.7437 50.7609H81.5399C81.5236 50.2395 81.3608 49.8485 81.0513 49.5878C80.7581 49.3271 80.3754 49.1968 79.9031 49.1968C79.5447 49.1968 79.2516 49.3027 79.0236 49.5145C78.7955 49.7263 78.6815 50.0277 78.6815 50.4187C78.6815 50.7446 78.8037 51.0297 79.048 51.2741C79.3086 51.5022 79.6262 51.7059 80.0008 51.8851C80.3754 52.048 80.9291 52.2598 81.6621 52.5205C82.7533 52.8953 83.6491 53.27 84.3495 53.6447C85.0661 54.0032 85.6769 54.5164 86.1818 55.1844C86.7029 55.8361 86.9635 56.6671 86.9635 57.6772C86.9635 58.7037 86.7029 59.6242 86.1818 60.4388C85.6769 61.2535 84.9358 61.8971 83.9586 62.3696C82.9976 62.842 81.8575 63.0783 80.5383 63.0783Z" fill="white"/>
<path d="M102.162 45.6775V49.4901H97.5693V62.9072H92.7809V49.4901H88.2368V45.6775H102.162Z" fill="white"/>
<path d="M108.722 45.6775V62.9072H103.934V45.6775H108.722Z" fill="white"/>
<path d="M110.863 54.2557C110.863 52.5613 111.213 51.0542 111.913 49.7344C112.63 48.3984 113.64 47.3638 114.943 46.6307C116.246 45.8812 117.744 45.5064 119.438 45.5064C121.588 45.5064 123.396 46.0848 124.862 47.2416C126.328 48.3821 127.272 49.9381 127.696 51.9095H122.541C122.231 51.2578 121.8 50.7609 121.246 50.4187C120.708 50.0766 120.081 49.9055 119.365 49.9055C118.257 49.9055 117.37 50.3047 116.702 51.103C116.05 51.8851 115.725 52.936 115.725 54.2557C115.725 55.5917 116.05 56.6589 116.702 57.4573C117.37 58.2393 118.257 58.6303 119.365 58.6303C120.081 58.6303 120.708 58.4593 121.246 58.1171C121.8 57.775 122.231 57.278 122.541 56.6263H127.696C127.272 58.5978 126.328 60.1619 124.862 61.3187C123.396 62.4592 121.588 63.0294 119.438 63.0294C117.744 63.0294 116.246 62.6628 114.943 61.9296C113.64 61.1802 112.63 60.1456 111.913 58.8259C111.213 57.4898 110.863 55.9665 110.863 54.2557Z" fill="white"/>
<path d="M0 73.3636C0 72.7819 0.131112 72.2601 0.393335 71.7982C0.655558 71.3306 1.01184 70.9657 1.46218 70.7033C1.91822 70.441 2.42271 70.3099 2.97566 70.3099C3.62552 70.3099 4.19272 70.4667 4.67726 70.7803C5.1618 71.094 5.51523 71.5388 5.73755 72.1147H4.80552C4.64021 71.7555 4.40079 71.4789 4.08726 71.285C3.77943 71.0911 3.4089 70.9942 2.97566 70.9942C2.55952 70.9942 2.18614 71.0911 1.85551 71.285C1.52488 71.4789 1.26551 71.7555 1.07739 72.1147C0.889278 72.4683 0.79522 72.8846 0.79522 73.3636C0.79522 73.8369 0.889278 74.2531 1.07739 74.6124C1.26551 74.966 1.52488 75.2397 1.85551 75.4336C2.18614 75.6275 2.55952 75.7244 2.97566 75.7244C3.4089 75.7244 3.77943 75.6303 4.08726 75.4421C4.40079 75.2482 4.64021 74.9717 4.80552 74.6124H5.73755C5.51523 75.1827 5.1618 75.6246 4.67726 75.9382C4.19272 76.2462 3.62552 76.4001 2.97566 76.4001C2.42271 76.4001 1.91822 76.2718 1.46218 76.0152C1.01184 75.7529 0.655558 75.3908 0.393335 74.9289C0.131112 74.467 0 73.9452 0 73.3636Z" fill="white"/>
<path d="M11.308 76.4087C10.7551 76.4087 10.2506 76.2804 9.79455 76.0238C9.33851 75.7615 8.97653 75.3994 8.70861 74.9375C8.44638 74.4698 8.31527 73.9452 8.31527 73.3636C8.31527 72.7819 8.44638 72.2601 8.70861 71.7982C8.97653 71.3306 9.33851 70.9685 9.79455 70.7119C10.2506 70.4496 10.7551 70.3184 11.308 70.3184C11.8667 70.3184 12.374 70.4496 12.8301 70.7119C13.2861 70.9685 13.6452 71.3278 13.9075 71.7897C14.1697 72.2516 14.3008 72.7762 14.3008 73.3636C14.3008 73.9509 14.1697 74.4755 13.9075 74.9375C13.6452 75.3994 13.2861 75.7615 12.8301 76.0238C12.374 76.2804 11.8667 76.4087 11.308 76.4087ZM11.308 75.7329C11.7242 75.7329 12.0976 75.636 12.4282 75.4421C12.7645 75.2482 13.0267 74.9717 13.2149 74.6124C13.4087 74.2531 13.5056 73.8369 13.5056 73.3636C13.5056 72.8846 13.4087 72.4683 13.2149 72.1147C13.0267 71.7555 12.7674 71.4789 12.4367 71.285C12.1061 71.0911 11.7299 70.9942 11.308 70.9942C10.8862 70.9942 10.51 71.0911 10.1793 71.285C9.84871 71.4789 9.58648 71.7555 9.39267 72.1147C9.20455 72.4683 9.11049 72.8846 9.11049 73.3636C9.11049 73.8369 9.20455 74.2531 9.39267 74.6124C9.58648 74.9717 9.84871 75.2482 10.1793 75.4421C10.5157 75.636 10.8919 75.7329 11.308 75.7329Z" fill="white"/>
<path d="M21.724 76.3488H20.9459L17.8163 71.6015V76.3488H17.0382V70.3783H17.8163L20.9459 75.1171V70.3783H21.724V76.3488Z" fill="white"/>
<path d="M28.4288 70.3869V71.0198H26.8042V76.3488H26.0261V71.0198H24.3929V70.3869H28.4288Z" fill="white"/>
<path d="M31.8749 71.0198V73.0129H34.0468V73.6544H31.8749V75.7073H34.3033V76.3488H31.0968V70.3783H34.3033V71.0198H31.8749Z" fill="white"/>
<path d="M41.8767 76.3488H41.0986L37.969 71.6015V76.3488H37.1909V70.3783H37.969L41.0986 75.1171V70.3783H41.8767V76.3488Z" fill="white"/>
<path d="M48.5816 70.3869V71.0198H46.9569V76.3488H46.1788V71.0198H44.5456V70.3869H48.5816Z" fill="white"/>
<path d="M61.2847 70.4296V76.3488H60.5066V71.9351L58.5399 76.3488H57.9927L56.0174 71.9265V76.3488H55.2393V70.4296H56.0773L58.2663 75.3224L60.4553 70.4296H61.2847Z" fill="white"/>
<path d="M67.8374 75.023H65.2379L64.7591 76.3488H63.9382L66.093 70.4211H66.9909L69.1371 76.3488H68.3162L67.8374 75.023ZM67.6151 74.39L66.5377 71.3791L65.4603 74.39H67.6151Z" fill="white"/>
<path d="M76.4722 76.3488H75.6941L72.5645 71.6015V76.3488H71.7864V70.3783H72.5645L75.6941 75.1171V70.3783H76.4722V76.3488Z" fill="white"/>
<path d="M83.0317 75.023H80.4322L79.9534 76.3488H79.1325L81.2873 70.4211H82.1851L84.3314 76.3488H83.5105L83.0317 75.023ZM82.8093 74.39L81.7319 71.3791L80.6546 74.39H82.8093Z" fill="white"/>
<path d="M91.4954 72.1147C91.3301 71.7669 91.0907 71.4988 90.7772 71.3107C90.4637 71.1168 90.0988 71.0198 89.6827 71.0198C89.2665 71.0198 88.8903 71.1168 88.554 71.3107C88.2234 71.4988 87.9611 71.7726 87.7673 72.1318C87.5792 72.4854 87.4851 72.896 87.4851 73.3636C87.4851 73.8312 87.5792 74.2417 87.7673 74.5953C87.9611 74.9489 88.2234 75.2226 88.554 75.4165C88.8903 75.6046 89.2665 75.6987 89.6827 75.6987C90.2641 75.6987 90.743 75.5248 91.1192 75.177C91.4954 74.8291 91.7149 74.3586 91.7776 73.7656H89.4005V73.1326H92.607V73.7314C92.5614 74.2218 92.4075 74.6723 92.1453 75.0829C91.8831 75.4877 91.5382 75.8099 91.1107 76.0494C90.6831 76.2832 90.2071 76.4001 89.6827 76.4001C89.1297 76.4001 88.6252 76.2718 88.1692 76.0152C87.7132 75.7529 87.3512 75.3908 87.0833 74.9289C86.821 74.467 86.6899 73.9452 86.6899 73.3636C86.6899 72.7819 86.821 72.2601 87.0833 71.7982C87.3512 71.3306 87.7132 70.9685 88.1692 70.7119C88.6252 70.4496 89.1297 70.3184 89.6827 70.3184C90.3154 70.3184 90.8741 70.4752 91.3586 70.7889C91.8489 71.1025 92.2051 71.5445 92.4275 72.1147H91.4954Z" fill="white"/>
<path d="M96.1241 71.0198V73.0129H98.296V73.6544H96.1241V75.7073H98.5525V76.3488H95.346V70.3783H98.5525V71.0198H96.1241Z" fill="white"/>
<path d="M107.485 70.4296V76.3488H106.707V71.9351L104.741 76.3488H104.193L102.218 71.9265V76.3488H101.44V70.4296H102.278L104.467 75.3224L106.656 70.4296H107.485Z" fill="white"/>
<path d="M111.293 71.0198V73.0129H113.465V73.6544H111.293V75.7073H113.722V76.3488H110.515V70.3783H113.722V71.0198H111.293Z" fill="white"/>
<path d="M121.295 76.3488H120.517L117.387 71.6015V76.3488H116.609V70.3783H117.387L120.517 75.1171V70.3783H121.295V76.3488Z" fill="white"/>
<path d="M128 70.3869V71.0198H126.375V76.3488H125.597V71.0198H123.964V70.3869H128Z" fill="white"/>
</svg>
