<svg width="128" height="128" viewBox="0 0 128 128" fill="none" xmlns="http://www.w3.org/2000/svg">
<path d="M47 55.2916L52.4723 58.5666V66.2083H47V55.2916Z" fill="#0F1626"/>
<path fill-rule="evenodd" clip-rule="evenodd" d="M82.0225 33.4583L85.3058 28L47 28L47 33.4583H47L47 50.3792L52.4723 53.6542L52.4723 33.4583H82.0225Z" fill="#FF533D"/>
<path d="M55.2084 49.8333L60.6807 53.1083V66.2083H55.2084V49.8333Z" fill="#0F1626"/>
<path d="M63.4168 44.375L68.8891 47.65V66.2083H63.4168V44.375Z" fill="#0F1626"/>
<path d="M71.6252 41.6458L77.0974 44.9208V66.2083H71.6252V41.6458Z" fill="#0F1626"/>
<path d="M79.8335 38.9167L85.3058 42.1917V66.2083H79.8335V38.9167Z" fill="#0F1626"/>
<path d="M19.44 88.14C17.8 88.14 16.4533 87.7533 15.4 86.98C14.3467 86.1933 13.78 85.0733 13.7 83.62H17.88C17.92 84.1133 18.0667 84.4733 18.32 84.7C18.5733 84.9267 18.9 85.04 19.3 85.04C19.66 85.04 19.9533 84.9533 20.18 84.78C20.42 84.5933 20.54 84.34 20.54 84.02C20.54 83.6067 20.3467 83.2867 19.96 83.06C19.5733 82.8333 18.9467 82.58 18.08 82.3C17.16 81.9933 16.4133 81.7 15.84 81.42C15.28 81.1267 14.7867 80.7067 14.36 80.16C13.9467 79.6 13.74 78.8733 13.74 77.98C13.74 77.0733 13.9667 76.3 14.42 75.66C14.8733 75.0067 15.5 74.5133 16.3 74.18C17.1 73.8467 18.0067 73.68 19.02 73.68C20.66 73.68 21.9667 74.0667 22.94 74.84C23.9267 75.6 24.4533 76.6733 24.52 78.06H20.26C20.2467 77.6333 20.1133 77.3133 19.86 77.1C19.62 76.8867 19.3067 76.78 18.92 76.78C18.6267 76.78 18.3867 76.8667 18.2 77.04C18.0133 77.2133 17.92 77.46 17.92 77.78C17.92 78.0467 18.02 78.28 18.22 78.48C18.4333 78.6667 18.6933 78.8333 19 78.98C19.3067 79.1133 19.76 79.2867 20.36 79.5C21.2533 79.8067 21.9867 80.1133 22.56 80.42C23.1467 80.7133 23.6467 81.1333 24.06 81.68C24.4867 82.2133 24.7 82.8933 24.7 83.72C24.7 84.56 24.4867 85.3133 24.06 85.98C23.6467 86.6467 23.04 87.1733 22.24 87.56C21.4533 87.9467 20.52 88.14 19.44 88.14ZM37.1423 73.9V77.02H33.3823V88H29.4623V77.02H25.7423V73.9H37.1423ZM47.5127 85.7H42.5127L41.7527 88H37.6327L42.7727 73.9H47.2927L52.4127 88H48.2727L47.5127 85.7ZM46.5327 82.7L45.0127 78.14L43.5127 82.7H46.5327ZM64.3103 73.9V77.02H60.5503V88H56.6303V77.02H52.9103V73.9H64.3103ZM69.6806 73.9V88H65.7606V73.9H69.6806ZM77.233 88.14C75.593 88.14 74.2463 87.7533 73.193 86.98C72.1396 86.1933 71.573 85.0733 71.493 83.62H75.673C75.713 84.1133 75.8596 84.4733 76.113 84.7C76.3663 84.9267 76.693 85.04 77.093 85.04C77.453 85.04 77.7463 84.9533 77.973 84.78C78.213 84.5933 78.333 84.34 78.333 84.02C78.333 83.6067 78.1396 83.2867 77.753 83.06C77.3663 82.8333 76.7396 82.58 75.873 82.3C74.953 81.9933 74.2063 81.7 73.633 81.42C73.073 81.1267 72.5796 80.7067 72.153 80.16C71.7396 79.6 71.533 78.8733 71.533 77.98C71.533 77.0733 71.7596 76.3 72.213 75.66C72.6663 75.0067 73.293 74.5133 74.093 74.18C74.893 73.8467 75.7996 73.68 76.813 73.68C78.453 73.68 79.7596 74.0667 80.733 74.84C81.7196 75.6 82.2463 76.6733 82.313 78.06H78.053C78.0396 77.6333 77.9063 77.3133 77.653 77.1C77.413 76.8867 77.0996 76.78 76.713 76.78C76.4196 76.78 76.1796 76.8667 75.993 77.04C75.8063 77.2133 75.713 77.46 75.713 77.78C75.713 78.0467 75.813 78.28 76.013 78.48C76.2263 78.6667 76.4863 78.8333 76.793 78.98C77.0996 79.1133 77.553 79.2867 78.153 79.5C79.0463 79.8067 79.7796 80.1133 80.353 80.42C80.9396 80.7133 81.4396 81.1333 81.853 81.68C82.2796 82.2133 82.493 82.8933 82.493 83.72C82.493 84.56 82.2796 85.3133 81.853 85.98C81.4396 86.6467 80.833 87.1733 80.033 87.56C79.2463 87.9467 78.313 88.14 77.233 88.14ZM94.9353 73.9V77.02H91.1753V88H87.2553V77.02H83.5353V73.9H94.9353ZM100.306 73.9V88H96.3856V73.9H100.306ZM102.058 80.92C102.058 79.5333 102.345 78.3 102.918 77.22C103.505 76.1267 104.331 75.28 105.398 74.68C106.465 74.0667 107.691 73.76 109.078 73.76C110.838 73.76 112.318 74.2333 113.518 75.18C114.718 76.1133 115.491 77.3867 115.838 79H111.618C111.365 78.4667 111.011 78.06 110.558 77.78C110.118 77.5 109.605 77.36 109.018 77.36C108.111 77.36 107.385 77.6867 106.838 78.34C106.305 78.98 106.038 79.84 106.038 80.92C106.038 82.0133 106.305 82.8867 106.838 83.54C107.385 84.18 108.111 84.5 109.018 84.5C109.605 84.5 110.118 84.36 110.558 84.08C111.011 83.8 111.365 83.3933 111.618 82.86H115.838C115.491 84.4733 114.718 85.7533 113.518 86.7C112.318 87.6333 110.838 88.1 109.078 88.1C107.691 88.1 106.465 87.8 105.398 87.2C104.331 86.5867 103.505 85.74 102.918 84.66C102.345 83.5667 102.058 82.32 102.058 80.92Z" fill="#0F1626"/>
<path d="M11.301 96.557C11.301 96.081 11.4083 95.654 11.623 95.276C11.8377 94.8933 12.1293 94.5947 12.498 94.38C12.8713 94.1653 13.2843 94.058 13.737 94.058C14.269 94.058 14.7333 94.1863 15.13 94.443C15.5267 94.6997 15.816 95.0637 15.998 95.535H15.235C15.0997 95.241 14.9037 95.0147 14.647 94.856C14.395 94.6973 14.0917 94.618 13.737 94.618C13.3963 94.618 13.0907 94.6973 12.82 94.856C12.5493 95.0147 12.337 95.241 12.183 95.535C12.029 95.8243 11.952 96.165 11.952 96.557C11.952 96.9443 12.029 97.285 12.183 97.579C12.337 97.8683 12.5493 98.0923 12.82 98.251C13.0907 98.4097 13.3963 98.489 13.737 98.489C14.0917 98.489 14.395 98.412 14.647 98.258C14.9037 98.0993 15.0997 97.873 15.235 97.579H15.998C15.816 98.0457 15.5267 98.4073 15.13 98.664C14.7333 98.916 14.269 99.042 13.737 99.042C13.2843 99.042 12.8713 98.937 12.498 98.727C12.1293 98.5123 11.8377 98.216 11.623 97.838C11.4083 97.46 11.301 97.033 11.301 96.557ZM20.5582 99.049C20.1056 99.049 19.6926 98.944 19.3192 98.734C18.9459 98.5193 18.6496 98.223 18.4302 97.845C18.2156 97.4623 18.1082 97.033 18.1082 96.557C18.1082 96.081 18.2156 95.654 18.4302 95.276C18.6496 94.8933 18.9459 94.597 19.3192 94.387C19.6926 94.1723 20.1056 94.065 20.5582 94.065C21.0156 94.065 21.4309 94.1723 21.8042 94.387C22.1776 94.597 22.4716 94.891 22.6862 95.269C22.9009 95.647 23.0082 96.0763 23.0082 96.557C23.0082 97.0377 22.9009 97.467 22.6862 97.845C22.4716 98.223 22.1776 98.5193 21.8042 98.734C21.4309 98.944 21.0156 99.049 20.5582 99.049ZM20.5582 98.496C20.8989 98.496 21.2046 98.4167 21.4752 98.258C21.7506 98.0993 21.9652 97.873 22.1192 97.579C22.2779 97.285 22.3572 96.9443 22.3572 96.557C22.3572 96.165 22.2779 95.8243 22.1192 95.535C21.9652 95.241 21.7529 95.0147 21.4822 94.856C21.2116 94.6973 20.9036 94.618 20.5582 94.618C20.2129 94.618 19.9049 94.6973 19.6342 94.856C19.3636 95.0147 19.1489 95.241 18.9902 95.535C18.8362 95.8243 18.7592 96.165 18.7592 96.557C18.7592 96.9443 18.8362 97.285 18.9902 97.579C19.1489 97.873 19.3636 98.0993 19.6342 98.258C19.9096 98.4167 20.2176 98.496 20.5582 98.496ZM29.0852 99H28.4482L25.8862 95.115V99H25.2492V94.114H25.8862L28.4482 97.992V94.114H29.0852V99ZM34.574 94.121V94.639H33.244V99H32.607V94.639H31.27V94.121H34.574ZM37.3951 94.639V96.27H39.1731V96.795H37.3951V98.475H39.3831V99H36.7581V94.114H39.3831V94.639H37.3951ZM45.583 99H44.946L42.384 95.115V99H41.747V94.114H42.384L44.946 97.992V94.114H45.583V99ZM51.0719 94.121V94.639H49.7419V99H49.1049V94.639H47.7679V94.121H51.0719ZM61.4712 94.156V99H60.8342V95.388L59.2242 99H58.7762L57.1592 95.381V99H56.5222V94.156H57.2082L59.0002 98.16L60.7922 94.156H61.4712ZM66.8355 97.915H64.7075L64.3155 99H63.6435L65.4075 94.149H66.1425L67.8995 99H67.2275L66.8355 97.915ZM66.6535 97.397L65.7715 94.933L64.8895 97.397H66.6535ZM73.9043 99H73.2673L70.7053 95.115V99H70.0683V94.114H70.7053L73.2673 97.992V94.114H73.9043V99ZM79.2742 97.915H77.1462L76.7542 99H76.0822L77.8462 94.149H78.5812L80.3382 99H79.6662L79.2742 97.915ZM79.0922 97.397L78.2102 94.933L77.3282 97.397H79.0922ZM86.203 95.535C86.0676 95.2503 85.8716 95.031 85.615 94.877C85.3583 94.7183 85.0596 94.639 84.719 94.639C84.3783 94.639 84.0703 94.7183 83.795 94.877C83.5243 95.031 83.3096 95.255 83.151 95.549C82.997 95.8383 82.92 96.1743 82.92 96.557C82.92 96.9397 82.997 97.2757 83.151 97.565C83.3096 97.8543 83.5243 98.0783 83.795 98.237C84.0703 98.391 84.3783 98.468 84.719 98.468C85.195 98.468 85.587 98.3257 85.895 98.041C86.203 97.7563 86.3826 97.3713 86.434 96.886H84.488V96.368H87.113V96.858C87.0756 97.2593 86.9496 97.628 86.735 97.964C86.5203 98.2953 86.238 98.559 85.888 98.755C85.538 98.9463 85.1483 99.042 84.719 99.042C84.2663 99.042 83.8533 98.937 83.48 98.727C83.1066 98.5123 82.8103 98.216 82.591 97.838C82.3763 97.46 82.269 97.033 82.269 96.557C82.269 96.081 82.3763 95.654 82.591 95.276C82.8103 94.8933 83.1066 94.597 83.48 94.387C83.8533 94.1723 84.2663 94.065 84.719 94.065C85.237 94.065 85.6943 94.1933 86.091 94.45C86.4923 94.7067 86.784 95.0683 86.966 95.535H86.203ZM89.9922 94.639V96.27H91.7702V96.795H89.9922V98.475H91.9802V99H89.3552V94.114H91.9802V94.639H89.9922ZM99.2931 94.156V99H98.6561V95.388L97.0461 99H96.5981L94.9811 95.381V99H94.3441V94.156H95.0301L96.8221 98.16L98.6141 94.156H99.2931ZM102.41 94.639V96.27H104.188V96.795H102.41V98.475H104.398V99H101.773V94.114H104.398V94.639H102.41ZM110.598 99H109.961L107.399 95.115V99H106.762V94.114H107.399L109.961 97.992V94.114H110.598V99ZM116.087 94.121V94.639H114.757V99H114.12V94.639H112.783V94.121H116.087Z" fill="#0F1626"/>
</svg>
